<svg xmlns="http://www.w3.org/2000/svg" xmlns:svg="http://www.w3.org/2000/svg" id="Layer_1" width="104.2" height="104.2" x="0" y="0" class="mozwebext" version="1.1" viewBox="0 0 104.2 104.2" xml:space="preserve"><metadata id="metadata35"/><style id="style2" type="text/css">.st0{fill:#e95420}.st1{fill:#fff}</style><title id="title4">Artboard 3</title><g id="Layer_1_1_" transform="translate(0.59999847,0.79999924)"><circle id="circle6" cx="51.5" cy="51.3" r="51.1" fill="#e95420" class="st0"/><path id="path8" fill="#fff" d="m 82.3,55.6 c -0.6,0 -1.2,0.1 -1.9,0.2 L 71.8,38.7 c 3.3,-2.7 3.8,-7.7 1.1,-11 -2.7,-3.3 -7.7,-3.8 -11,-1.1 -3.3,2.7 -3.8,7.7 -1.1,11 0.3,0.4 0.6,0.7 1,1 l -8.6,17.1 c -1.2,-0.3 -2.4,-0.3 -3.6,0 l -8.5,-17 c 3.3,-2.7 3.8,-7.7 1.1,-11 -2.7,-3.3 -7.7,-3.8 -11,-1.1 -3.3,2.7 -3.8,7.7 -1.1,11 0.3,0.4 0.7,0.7 1.1,1.1 l -8.7,17.1 c -0.7,-0.2 -1.3,-0.3 -2,-0.3 -4.3,0 -7.9,3.5 -7.9,7.8 0,4.3 3.5,7.9 7.8,7.9 4.3,0 7.9,-3.5 7.9,-7.8 0,-2.3 -1,-4.5 -2.8,-6 l 8.7,-17.2 c 0.6,0.1 1.2,0.2 1.9,0.2 0.6,0 1.2,-0.1 1.8,-0.2 l 8.5,17 c -3.3,2.7 -3.8,7.7 -1.1,11 2.7,3.3 7.7,3.8 11,1.1 3.3,-2.7 3.8,-7.7 1.1,-11 -0.3,-0.4 -0.7,-0.8 -1.1,-1.1 l 8.6,-17.1 c 0.6,0.2 1.3,0.2 1.9,0.2 0.6,0 1.2,-0.1 1.8,-0.2 l 8.6,17 c -3.3,2.8 -3.8,7.7 -1,11 2.8,3.3 7.7,3.8 11,1 3.3,-2.8 3.8,-7.7 1,-11 -1.4,-1.5 -3.6,-2.5 -5.9,-2.5 z" class="st1"/></g></svg>